<?xml version="1.0" encoding="UTF-8"?>
<svg version="1.1" viewBox="0 0 1304 2048" width="1280" height="1280" xmlns="http://www.w3.org/2000/svg">
<path transform="translate(1152)" d="m0 0h152v1499l-5-5-15-27-14-26-13-23-14-27-12-22-14-26-10-18-15-28-10-19-13-24-9-15-12-23-12-22-13-24-12-22-14-26-10-19-13-23-12-23-13-23-16-30-12-22-15-28-12-25-2-2-661-1-1-1v-63l1-1 658 1 5 2 4-1-2-8-5-7-2-1-779-1v-65l7-4 2-11-203-1-1-1 1-65h78l14-1-2-13-1-7v-50l2-13 2-11-80 1h-29v-148l969-2 23-1 4-3 2-12-12 3-871 2-2-1 1-67 55-1 259-2h520l46-1 3-10 1-4-10 2h-571l-100 1h-43l-1-3v-63l1-1h498l221-1 3-10 10-18 8-14 14-26 20-36 16-29 10-18 8-14 13-24 13-23 14-25 12-22 14-27z" fill="#93015E"/>
<path transform="translate(1152)" d="m0 0h152v605h-11l-14 1-196 1-24 1h-48l-52-1-262-1h-588v-2l-80 1h-29v-148l969-2 23-1 4-3 2-12-12 3-871 2-2-1 1-67 55-1 259-2h520l46-1 3-10 1-4-10 2h-571l-100 1h-43l-1-3v-63l1-1h498l221-1 3-10 10-18 8-14 14-26 20-36 16-29 10-18 8-14 13-24 13-23 14-25 12-22 14-27z" fill="#252C95"/>
<path transform="translate(1152)" d="m0 0h152v179l-8 6-10 9-8 7-28 24-15 13-8 7-13 12-13 11-11 9-8 8-8 7-10 9-8 7-12 11-11 9-15 13-14 13-8 7-14 12-11 10-10 8-16 15-11 10-11 9-14 13-9 7h-2v-6l-12 3-871 2-2-1 1-67 55-1 259-2h520l46-1 3-10 1-4-10 2h-571l-100 1h-43l-1-3v-63l1-1h498l221-1 3-10 10-18 8-14 14-26 20-36 16-29 10-18 8-14 13-24 13-23 14-25 12-22 14-27z" fill="#026FBE"/>
<path transform="translate(1293,604)" d="m0 0 11 1v251l-5-1-16-8-25-12-16-8-18-10-12-6-17-9-16-8-21-11-58-29-19-9-22-12-32-16-19-10-15-7-12-2h-794l-78-1-3-12-1-7v-50l2-13 2-9 45-1h543l262 1 52 1h48l32-1 188-1z" fill="#E81B76"/>
<path transform="translate(109,697)" d="m0 0h872l12 2 23 11 35 18 29 15 17 9 23 11 34 17 38 20 19 9 10 6 32 16 23 12 22 10 6 3v226l-8-6-13-11-28-28-8-7-26-26v-2h-2v-2h-2l-7-8-24-24-8-7-21-21-8-7-32-32-8-7-15-14-19-19-8-7-30-30-8-7-16-16-8-7-11-11-5-3-23-1-229-1h-520l2-12-203-1-1-1 1-65h78l14-1z" fill="#CA115B"/>
<path transform="translate(1302,404)" d="m0 0h2v201h-11l-14 1-196 1-24 1h-48l-52-1-262-1h-588v-2l-80 1h-29v-68l68-1 914-1 9-2 16-6 35-15 32-13 45-19 28-11 43-18 36-15 45-19z" fill="#150E66"/>
<path transform="translate(331,861)" d="m0 0 658 1 5 2 4-1h3l8 12 12 17 14 20 10 14 12 16 12 17 10 14 12 16 10 14 13 18 10 14 13 18 12 16 11 16 12 17 10 13 12 17 9 12 10 14 11 15 10 14 11 16 10 13 12 17 11 15 13 18 12 16 1 1v216l-5-5-15-27-14-26-13-23-14-27-12-22-14-26-10-18-15-28-10-19-13-24-9-15-12-23-12-22-13-24-12-22-14-26-10-19-13-23-12-23-13-23-16-30-12-22-15-28-12-25-2-2-661-1-1-1v-63z" fill="#863363"/>
<path transform="translate(1152)" d="m0 0h113l-2 5-8 11-13 18-12 16-14 19-13 17-14 19-30 40-11 15-10 13-10 14-12 16-28 38-13 18-13 17-14 19-13 18-9 12-10 14-8 11-8 10-2 1v-3l-10 2h-571l-100 1h-43l-1-3v-63l1-1h498l221-1 3-10 10-18 8-14 14-26 20-36 16-29 10-18 8-14 13-24 13-23 14-25 12-22 14-27z" fill="#22ABED"/>
<path transform="translate(1301,378)" d="m0 0h3v26l-28 12-38 16-43 18-41 17-27 11-20 8-40 17-32 13-38 16-8 3-7 1-914 1h-68v-13h984l12-3 25-11 29-14 26-12 33-16 29-13 22-11 28-13 29-13 16-8 32-15 15-7z" fill="#FDFDFD"/>
<path transform="translate(107,685)" d="m0 0 24 1 676 1 179 1 16 5 24 11 16 8 24 11 27 12 29 13 28 13 20 9 32 15 23 10 25 12 25 11 23 11 6 3v24l-5-1-16-8-25-12-16-8-18-10-12-6-17-9-16-8-21-11-58-29-19-9-22-12-32-16-19-10-15-7-12-2h-794l-78-1-2-7z" fill="#FDFDFD"/>
<path transform="translate(1293,604)" d="m0 0 11 1v24h-23l-66-3-84-3-71-4-57-2-85-1h-811l2-10 45-1h543l262 1 52 1h48l32-1 188-1z" fill="#FDFDFD"/>
<path transform="translate(653,767)" d="m0 0 207 1h122l10 2 10 9 15 15 8 7 10 9 8 7 11 11 8 7 16 15 20 18 13 13 8 7 10 9 14 12 13 12 17 17 11 9 15 14 10 9 15 15 11 9 16 15 13 12 16 15 8 7 10 9 6 5v25l-8-6-13-11-28-28-8-7-26-26v-2h-2v-2h-2l-7-8-24-24-8-7-21-21-8-7-32-32-8-7-15-14-19-19-8-7-30-30-8-7-16-16-8-7-11-11-5-3-23-1-229-1h-520l2-10z" fill="#FDFDFD"/>
<path transform="translate(999,862)" d="m0 0 4 4 11 16 28 40 10 13 10 14 14 20 15 20 10 14 13 18 10 14 13 18 12 16 11 16 12 17 10 13 12 17 9 12 10 14 11 15 10 14 11 16 10 13 12 17 11 15 13 18 12 16 1 1v24l-4-2-12-16-10-15-15-22-12-17-8-12-16-23-15-22-12-17-13-18-9-13-16-23-14-20-11-16-26-36-13-19-14-20-13-18-13-19-8-11-14-20-9-13-15-22-11-16-8-11-1-2h5z" fill="#FDFDFD"/>
<path transform="translate(1302,154)" d="m0 0h2v25l-8 6-10 9-8 7-28 24-15 13-8 7-13 12-13 11-11 9-8 8-8 7-10 9-8 7-12 11-11 9-15 13-14 13-8 7-14 12-11 10-10 8-16 15-11 10-11 9-14 13-9 7h-2v-6l-3-2 12-11 8-7 16-15 10-9 14-12 16-15 8-7 16-15 15-15 8-7 14-14 8-7 14-12 8-7 13-12 21-21 8-7 8-8 8-7 15-14 17-17 8-7 10-9 11-9 9-9 11-9z" fill="#FDFDFD"/>
<path transform="translate(1249)" d="m0 0h16l-2 5-8 11-13 18-12 16-14 19-13 17-14 19-30 40-11 15-10 13-10 14-12 16-28 38-13 18-13 17-14 19-13 18-9 12-10 14-8 11-8 10-2 1v-3l-8 1 2-4 16-21 9-13 13-18 8-11 13-18 14-19 14-20 12-16 10-14 13-18 14-19 10-14 13-18 14-19 14-20 13-18 12-17 39-54z" fill="#FDFDFD"/>
<path transform="translate(615,456)" d="m0 0h338v1l-35 1-18 2-15 1h-76l-23-1h-175l-61 1h-383l-45-1h-33l-31 1h-23l-13-2 3-2z" fill="#160F69"/>
<path transform="translate(1067,738)" d="m0 0 5 1 82 41 38 20 19 9 10 6 32 16 23 12 2 1v3l-10-3-30-15h-2l-1-2-6-2v-2l-5-2-19-9-14-7-15-8-6-3-5-2v-2l-5-1-10-5-14-6v-2l-11-3-7-5-10-3-4-3v-2l-8-2-3-3-17-8-7-4z" fill="#E61B76"/>
<path transform="translate(1104,872)" d="m0 0 4 2 5 5 10 7v2l4 1v2h2v2l5 2v2h2l5 5v2l4 1 3 4v2l4 1 2 1v2h2v3l4 1 3 3v3l4 1 4 5 6 4 1 4 5 2 2 4 6 4 7 6v2l4 2 12 9 5 5 3 2v2l3 1 5 6 8 7 7 7 4 3v2h2v2l5 2 5 6v2l2 1-3 2-15-14-11-10-11-9-21-21-8-7-11-10-11-9-24-24-8-7-14-12-13-12-8-7z" fill="#E21C75"/>
<path transform="translate(25,457)" d="m0 0h92l-2 2-17 1-42 1h-21l-13-2z" fill="#17116B"/>
<path transform="translate(20,749)" d="m0 0 2 3 5 10v2h13v1h-24l-1-1 1-13z" fill="#E41C76"/>
<path transform="translate(1203,985)" d="m0 0 7 6 7 7v2h2v2h2v2l3 1 7 8 15 15h-3l-35-35v-2h-2v-2h-2z" fill="#6C3F75"/>
<path transform="translate(1287,1039)" d="m0 0 1 2h2v2l5 2 2 4h-3l-9-8z" fill="#E21A73"/>
<path transform="translate(1229,50)" d="m0 0 1 4-7 9-3 1 2-4z" fill="#22ABED"/>
<path transform="translate(1302,179)" d="m0 0h2v8l-6-2z" fill="#181874"/>
<path transform="translate(1244,1029)" d="m0 0 4 1 6 6v2l-4-2z" fill="#C01E67"/>
</svg>
